<svg width="18" height="18" viewBox="0 0 18 18" fill="none" xmlns="http://www.w3.org/2000/svg">
<g id="chatbox-ellipses-outline 2">
<path id="Vector" d="M14.3438 2.25H3.65625C3.13456 2.25148 2.63466 2.45938 2.26577 2.82827C1.89688 3.19716 1.68898 3.69706 1.6875 4.21875V10.9688C1.68898 11.4904 1.89688 11.9903 2.26577 12.3592C2.63466 12.7281 3.13456 12.936 3.65625 12.9375H5.0625V15.75L8.35734 13.0029C8.40794 12.9606 8.47177 12.9375 8.5377 12.9375H14.3438C14.8654 12.936 15.3653 12.7281 15.7342 12.3592C16.1031 11.9903 16.311 11.4904 16.3125 10.9688V4.21875C16.311 3.69706 16.1031 3.19716 15.7342 2.82827C15.3653 2.45938 14.8654 2.25148 14.3438 2.25Z" stroke="white" stroke-width="2" stroke-linejoin="round"/>
<path id="Vector_2" d="M5.625 8.71875C6.24632 8.71875 6.75 8.21507 6.75 7.59375C6.75 6.97243 6.24632 6.46875 5.625 6.46875C5.00368 6.46875 4.5 6.97243 4.5 7.59375C4.5 8.21507 5.00368 8.71875 5.625 8.71875Z" fill="white"/>
<path id="Vector_3" d="M9 8.71875C9.62132 8.71875 10.125 8.21507 10.125 7.59375C10.125 6.97243 9.62132 6.46875 9 6.46875C8.37868 6.46875 7.875 6.97243 7.875 7.59375C7.875 8.21507 8.37868 8.71875 9 8.71875Z" fill="white"/>
<path id="Vector_4" d="M12.375 8.71875C12.9963 8.71875 13.5 8.21507 13.5 7.59375C13.5 6.97243 12.9963 6.46875 12.375 6.46875C11.7537 6.46875 11.25 6.97243 11.25 7.59375C11.25 8.21507 11.7537 8.71875 12.375 8.71875Z" fill="white"/>
</g>
</svg>
