<svg width="18" height="18" viewBox="0 0 18 18" fill="none" xmlns="http://www.w3.org/2000/svg">
<g id="chatbox-ellipses-outline 3">
<path id="Vector" d="M14.3602 2.25H4.10448C3.60387 2.25148 3.12417 2.45938 2.77018 2.82827C2.41619 3.19716 2.2167 3.69706 2.21527 4.21875V10.9688C2.2167 11.4904 2.41619 11.9903 2.77018 12.3592C3.12417 12.7281 3.60387 12.936 4.10448 12.9375H5.45391V15.75L8.61563 13.0029C8.66418 12.9606 8.72543 12.9375 8.78869 12.9375H14.3602C14.8608 12.936 15.3405 12.7281 15.6945 12.3592C16.0484 11.9903 16.2479 11.4904 16.2494 10.9688V4.21875C16.2479 3.69706 16.0484 3.19716 15.6945 2.82827C15.3405 2.45938 14.8608 2.25148 14.3602 2.25Z" stroke="black" stroke-linejoin="round"/>
</g>
</svg>
