<svg width="31" height="31" viewBox="0 0 31 31" fill="none" xmlns="http://www.w3.org/2000/svg">
<g id="google logo" clip-path="url(#clip0_1_15)">
<path id="Vector" d="M30.2277 15.8467C30.2277 14.6022 30.1268 13.6941 29.9082 12.7523H15.6978V18.3692H24.039C23.8709 19.765 22.9628 21.8672 20.9447 23.2797L20.9164 23.4678L25.4095 26.9485L25.7208 26.9796C28.5796 24.3393 30.2277 20.4545 30.2277 15.8467Z" fill="#4285F4"/>
<path id="Vector_2" d="M15.6978 30.6457C19.7843 30.6457 23.2149 29.3002 25.7208 26.9796L20.9447 23.2797C19.6666 24.171 17.9513 24.7932 15.6978 24.7932C11.6954 24.7932 8.29839 22.1531 7.08744 18.5038L6.90995 18.5188L2.23799 22.1345L2.1769 22.3044C4.66579 27.2485 9.77818 30.6457 15.6978 30.6457Z" fill="#34A853"/>
<path id="Vector_3" d="M7.08744 18.5038C6.76793 17.562 6.58301 16.5529 6.58301 15.5103C6.58301 14.4676 6.76793 13.4586 7.07063 12.5169L7.06217 12.3163L2.33167 8.64256L2.1769 8.71618C1.1511 10.7679 0.5625 13.0719 0.5625 15.5103C0.5625 17.9488 1.1511 20.2527 2.1769 22.3044L7.08744 18.5038Z" fill="#FBBC05"/>
<path id="Vector_4" d="M15.6978 6.22729C18.5399 6.22729 20.457 7.45493 21.5501 8.48084L25.8216 4.31019C23.1982 1.87172 19.7843 0.375 15.6978 0.375C9.77818 0.375 4.66579 3.77202 2.1769 8.71618L7.07063 12.5169C8.29839 8.8676 11.6954 6.22729 15.6978 6.22729Z" fill="#EB4335"/>
</g>
<defs>
<clipPath id="clip0_1_15">
<rect width="30.375" height="30.375" fill="white" transform="translate(0.5625 0.375)"/>
</clipPath>
</defs>
</svg>
