<svg width="30" height="28" viewBox="0 0 30 28" fill="none" xmlns="http://www.w3.org/2000/svg">
<g id="Group">
<g id="Group_2">
<path id="Vector" fill-rule="evenodd" clip-rule="evenodd" d="M27.9483 27.625C28.8397 27.625 29.5625 26.9577 29.5625 26.1349V2.11514C29.5625 1.29197 28.8396 0.625 27.9483 0.625H1.92683C1.03506 0.625 0.3125 1.29207 0.3125 2.11514V26.1348C0.3125 26.9577 1.03506 27.6249 1.92683 27.6249H27.9483V27.625ZM20.4945 27.625V17.1692H24.2966L24.8658 13.0943H20.4944V10.4927C20.4944 9.31291 20.8493 8.50897 22.6822 8.50897L25.0197 8.50795V4.86344C24.6154 4.81387 23.2277 4.7029 21.6135 4.7029C18.2431 4.7029 15.9357 6.60183 15.9357 10.0892V13.0943H12.1239V17.1692H15.9357V27.6249H20.4945V27.625Z" fill="#0F2E68"/>
</g>
</g>
</svg>
