<svg width="25" height="30" viewBox="0 0 25 30" fill="none" xmlns="http://www.w3.org/2000/svg">
<path id="Vector" d="M20.6929 15.457C20.6798 13.0604 21.7713 11.2515 23.9807 9.91938C22.7445 8.16276 20.8771 7.19629 18.4113 7.00691C16.077 6.82407 13.5257 8.35866 12.592 8.35866C11.6057 8.35866 9.34372 7.07221 7.56835 7.07221C3.89924 7.13099 0 9.97816 0 15.7704C0 17.4814 0.315622 19.251 0.946865 21.073C1.78852 23.4696 4.82638 29.3467 7.99575 29.2488C9.65276 29.2096 10.8232 28.0799 12.9799 28.0799C15.0709 28.0799 16.1559 29.2488 18.0036 29.2488C21.1993 29.2031 23.9478 23.8614 24.75 21.4583C20.4628 19.4535 20.6929 15.5811 20.6929 15.457ZM16.9712 4.7344C18.7663 2.61861 18.602 0.692202 18.5494 0C16.9647 0.0914229 15.1301 1.07095 14.0846 2.27904C12.9339 3.57202 12.2566 5.17192 12.4013 6.97426C14.1175 7.10486 15.6825 6.22982 16.9712 4.7344Z" fill="black"/>
</svg>
